<?xml version="1.0" encoding="UTF-8"?>
<svg width="251px" height="330px" viewBox="0 0 251 330" version="1.1" xmlns="http://www.w3.org/2000/svg" xmlns:xlink="http://www.w3.org/1999/xlink">
    <!-- Generator: Sketch 50.2 (55047) - http://www.bohemiancoding.com/sketch -->
    <title>Group 2</title>
    <desc>Created with Sketch.</desc>
    <defs></defs>
    <g id="Page-1" stroke="none" stroke-width="1" fill="none" fill-rule="evenodd">
        <g id="Desktop-HD" transform="translate(-363.000000, -1456.000000)">
            <g id="Group-2" transform="translate(363.000000, 1456.000000)">
                <rect id="Rectangle-4" fill="#FBBF15" x="0" y="0" width="251" height="330" rx="20"></rect>
                <path d="M175.846767,58.997037 C179.024173,59.8367546 181.27578,63.0362625 180.972679,66.2807188 L177.677745,101.552944 C177.399386,104.523624 175.003445,107.743563 172.223989,108.885661 L149.736782,118.120511 L149.736782,172.638819 C149.736782,172.673552 149.726472,172.706242 149.726472,172.740974 C149.780082,172.888078 149.858435,173.022923 149.905859,173.17207 L170.077539,235.768829 C170.916737,238.377879 170.66106,241.121774 169.35587,243.493823 C168.05068,245.865872 165.862992,247.565738 163.19694,248.280826 L161.84845,248.642456 C160.965952,248.879457 160.052525,249 159.132913,249 C154.489488,249 150.272879,245.972113 148.876965,241.63868 L128.705285,179.041921 C128.676418,178.952024 128.672294,178.858041 128.645489,178.768145 L123.750511,178.768145 C123.723706,178.858041 123.719583,178.952024 123.690716,179.041921 L103.519036,241.63868 C102.123122,245.974156 97.9065127,249 93.2651499,249 C92.3455374,249 91.4321106,248.879457 90.5475506,248.642456 L89.1990605,248.280826 C86.5330089,247.567781 84.3453208,245.867915 83.0401308,243.493823 C81.7349409,241.11973 81.4792638,238.375836 82.3184618,235.768829 L102.490142,173.17207 C102.539628,173.02088 102.615919,172.883992 102.67159,172.736888 C102.67159,172.702155 102.661281,172.671509 102.661281,172.636776 L102.661281,118.273744 C102.510761,118.183848 102.354056,118.104166 102.209722,118.002011 L55.6043365,84.9669894 C52.8454989,83.0096914 52.1712539,79.1706905 54.0991411,76.4043215 L56.7383878,72.6225277 C57.8806868,70.9839546 59.763212,70.0053057 61.7756376,70.0053057 C63.0581466,70.0053057 64.2891077,70.3975825 65.3344968,71.1392309 L111.593481,103.92908 L137.985948,103.92908 L159.128789,97.9672889 C160.512331,97.5770551 161.922679,95.9323528 162.089694,94.5185217 L165.799072,62.9443226 C166.135164,60.0798845 168.448629,58 171.29819,58 C171.811606,58 172.331208,58.0674226 172.8405,58.2022677 L175.846767,58.997037 Z M101.322074,84.1192686 C96.1825276,84.1192686 92.002085,80.02827 92,75.0011955 L92,70.5818565 C92,66.1196906 95.2963989,62.414135 99.6290472,61.6310127 C101.768266,48.8196203 113.133649,39 126.827987,39 C140.509814,39 151.862687,48.8012658 154.018586,61.5963432 C158.52012,62.2387482 162,66.0034459 162,70.5818565 L162,75.0011955 C162,80.0303094 157.817472,84.121308 152.677926,84.121308 C150.984899,84.121308 149.419057,83.6440928 148.049206,82.8711674 C144.769487,91.1245429 136.581658,97 126.998957,97 C117.416257,97 109.228428,91.1225035 105.950794,82.869128 C104.580943,83.6420534 103.015101,84.1192686 101.322074,84.1192686 Z M126.827987,43.0787623 C115.364608,43.0787623 105.817353,51.1812236 103.811575,61.8329114 C105.198106,62.2122363 106.449111,62.8872714 107.495785,63.7988748 C111.415602,57.2320675 118.679772,52.8004923 126.998957,52.8004923 C135.318143,52.8004923 142.582313,57.2341069 146.504215,63.7988748 C147.465404,62.9606892 148.601734,62.328481 149.856909,61.9348805 C147.892831,51.2322082 138.324725,43.0787623 126.827987,43.0787623 Z" id="Combined-Shape" fill="#FFFFFF" fill-rule="nonzero"></path>
                <text id="FWD-Loop" font-family="Circular-Bold, Circular" font-size="22" font-weight="bold" fill="#FFFFFF">
                    <tspan x="71" y="291">FWD Loop</tspan>
                </text>
            </g>
        </g>
    </g>
</svg>