<?xml version="1.0" encoding="UTF-8"?>
<svg width="251px" height="330px" viewBox="0 0 251 330" version="1.1" xmlns="http://www.w3.org/2000/svg" xmlns:xlink="http://www.w3.org/1999/xlink">
    <!-- Generator: Sketch 50.2 (55047) - http://www.bohemiancoding.com/sketch -->
    <title>snowboarding</title>
    <desc>Created with Sketch.</desc>
    <defs>
        <rect id="path-1" x="0" y="0" width="251" height="330" rx="20"></rect>
    </defs>
    <g id="Page-1" stroke="none" stroke-width="1" fill="none" fill-rule="evenodd">
        <g id="Desktop-HD" transform="translate(-80.000000, -1360.000000)">
            <g id="snowboarding" transform="translate(80.000000, 1360.000000)">
                <mask id="mask-2" fill="white">
                    <use xlink:href="#path-1"></use>
                </mask>
                <use id="Mask" fill="#00BEA0" xlink:href="#path-1"></use>
                <g mask="url(#mask-2)" fill="#FFFFFF" fill-rule="nonzero" id="Shape">
                    <g transform="translate(-24.000000, 32.000000)">
                        <path d="M163.5,41 C168.373418,41 172.507848,39.3075065 175.905063,35.9220779 C179.301392,32.5366494 181,28.4893247 181,23.7792208 C181,19.0691169 179.301392,15.0950909 175.905063,11.8571429 C172.507848,8.61919481 168.373418,7 163.5,7 C158.626582,7 154.491266,8.61919481 151.094937,11.8571429 C147.697722,15.0950909 146,19.0691169 146,23.7792208 C146,28.4897662 147.697722,32.5375325 151.094937,35.9220779 C154.491266,39.3075065 158.626582,41 163.5,41 Z"></path>
                        <path d="M191.573005,101.665297 C193.321732,103.143812 195.361621,103.883292 197.693548,103.883292 C200.024601,103.883292 201.991919,103.070175 203.595501,101.443498 C205.198209,99.8163771 206,97.9683442 206,95.8985118 C206,93.5323553 204.979618,91.4620793 202.939728,89.6876837 L154.412564,45.3277949 C152.955,43.5533994 151.206273,42.2226027 149.166384,41.3354049 L111.131579,28.0274383 L94.0814941,3.18590055 C92.6239304,1.411505 90.7291851,0.376588796 88.3981324,0.0807083378 C86.0666426,-0.215172121 84.0263158,0.302507782 82.2775891,1.63330445 C80.5288625,2.96410111 79.5089177,4.81257768 79.2173175,7.17829055 C78.9257173,8.9526861 79.362899,10.7270817 80.5288625,12.5014772 L98.016129,37.7866138 C98.8904924,38.6738116 99.9104372,39.4132909 101.076401,40.0046083 L121.186757,47.9893883 L87.9609508,65.2897449 C83.006371,67.9513382 79.9460993,72.0914466 78.7801358,77.7105138 L79.2173175,108.318837 L48.1774194,122.070403 C44.3883659,124.141122 42.3484762,127.246314 42.0568761,131.385979 C42.0568761,133.752136 42.7856579,135.969687 44.2427844,138.039519 L27.6298812,131.829578 C24.1324278,130.351507 21.9465195,127.98535 21.0721562,124.731996 C19.9061927,121.774966 18.0118846,119.630609 15.3887946,118.299812 C12.7657046,116.969015 10.0696053,116.821741 7.30093379,117.856213 C4.53226231,118.891573 2.49193548,120.739606 1.18039049,123.401199 C-0.131154499,126.062793 -0.349745331,128.872548 0.524617997,131.829578 C3.73047114,141.58831 10.1426146,148.242293 19.7606112,151.791084 L164.03056,206.797347 C173.93972,210.346138 183.266553,209.606658 192.010187,204.579352 C194.633277,203.100837 196.382003,200.882843 197.256367,197.925369 C198.13073,194.968782 197.766121,192.233552 196.163413,189.719233 C194.55983,187.205802 192.373922,185.578681 189.605688,184.839645 C186.836579,184.100609 184.140917,184.470571 181.517827,185.948642 C178.311537,187.723038 175.105246,187.8712 171.89983,186.392241 L136.050934,173.084275 C140.131587,171.606203 142.463077,168.648286 143.04584,164.212297 L148.729202,118.96521 L148.729202,118.078013 C149.020365,114.825546 147.999983,112.163952 145.66893,110.093233 L121.186757,88.3568871 L157.910017,70.6129315 L191.573005,101.665297 Z M126.869682,121.627247 L122.060683,161.550704 L122.060683,161.994302 L122.060683,162.437901 C121.769083,164.508621 122.206265,166.430735 123.372228,168.205131 L55.1718888,142.032353 C56.0462521,142.032353 56.775034,141.885078 57.3577971,141.588754 L95.3926019,124.288841 C98.307292,122.810769 100.056019,120.444613 100.638782,117.191258 L100.638782,98.1165062 L126.869682,121.627247 Z"></path>
                    </g>
                </g>
                <text id="Bebas-Optimal" mask="url(#mask-2)" font-family="Circular-Bold, Circular" font-size="22" font-weight="bold" fill="#FFFFFF">
                    <tspan x="44" y="283">Bebas Optimal</tspan>
                </text>
            </g>
        </g>
    </g>
</svg>