<?xml version="1.0" encoding="UTF-8"?>
<svg width="251px" height="330px" viewBox="0 0 251 330" version="1.1" xmlns="http://www.w3.org/2000/svg" xmlns:xlink="http://www.w3.org/1999/xlink">
    <!-- Generator: Sketch 50.2 (55047) - http://www.bohemiancoding.com/sketch -->
    <title>Group</title>
    <desc>Created with Sketch.</desc>
    <defs>
        <rect id="path-1" x="0" y="0" width="251" height="330" rx="20"></rect>
    </defs>
    <g id="Page-1" stroke="none" stroke-width="1" fill="none" fill-rule="evenodd">
        <g id="Desktop-HD" transform="translate(-363.000000, -1092.000000)">
            <g id="Group" transform="translate(363.000000, 1092.000000)">
                <g id="Bebas-Rencana">
                    <mask id="mask-2" fill="white">
                        <use xlink:href="#path-1"></use>
                    </mask>
                    <use id="Mask" fill="#F65E1B" xlink:href="#path-1"></use>
                    <text mask="url(#mask-2)" font-family="Circular-Bold, Circular" font-size="22" font-weight="bold" fill="#FFFFFF">
                        <tspan x="49" y="286">Bebas Rencana</tspan>
                    </text>
                    <g id="pregnancy" mask="url(#mask-2)" fill="#FFFFFF" fill-rule="nonzero">
                        <g transform="translate(-15.000000, 23.000000)">
                            <circle id="Oval" cx="96" cy="81" r="18"></circle>
                            <ellipse id="Oval" cx="160.5" cy="18" rx="18.5" ry="18"></ellipse>
                            <path d="M131.337248,109.588493 C128.595316,105.948781 123.424741,105.222935 119.788757,107.967786 L97.643422,124.682339 L80.991987,107.304393 L95.3312802,116.090538 L99.6719456,112.814186 C98.6548476,109.194126 95.9988735,106.085041 92.2193355,104.640773 L71.7360023,96.8128139 C65.3921207,94.3885224 58.2863972,97.5705414 55.8638626,103.919731 L35.2666459,157.913169 C34.01829,161.185591 33.6412962,164.726602 34.1723164,168.188566 L39.5440426,203.191211 L10.132849,203.191211 C4.76723154,203.191211 0.197053636,207.367666 0.0063750271,212.735085 C-0.193030291,218.369782 4.31126096,223 9.89591887,223 L50.8839657,223 C57.4202713,223 61.741738,217.373163 60.8551042,211.593034 L55.195833,174.697161 L80.5643783,181.092644 L73.5345772,210.811723 C72.275313,216.134595 75.5652826,221.471443 80.8837758,222.731411 C86.2114322,223.992252 91.5355978,220.690569 92.7926803,215.375121 L102.070482,176.154531 C103.317529,170.885814 100.10479,165.591329 94.8587289,164.268472 L83.7064301,161.457237 L87.8127834,150.693575 L69.0900639,118.731885 L90.8095355,141.399949 C93.7015671,144.418194 98.3908646,144.794219 101.72534,142.276904 L129.718444,121.148315 C133.354864,118.403463 134.079181,113.228206 131.337248,109.588493 Z" id="Shape"></path>
                            <path d="M192.917663,142.545686 L187.008207,102 L155.404553,125.917489 C149.782308,130.094393 142.375598,130.219374 136.721441,126.806682 L126.212682,134.882751 L125.083074,142.545686 C124.557614,145.589944 126.592569,148.404634 129.274512,148.404634 C131.182692,148.404634 133.537207,148.404634 136.202538,148.404634 L136.202538,212.411279 C136.202538,218.258944 140.978015,222.999566 146.86911,222.999566 C148.831934,222.999566 150.669295,222.470998 152.249172,221.553164 C150.693338,218.858682 149.799795,215.739349 149.799795,212.411279 L149.799795,148.405068 C152.378132,148.405068 155.027289,148.405068 157.687812,148.405068 L157.687812,212.411713 C157.687812,218.259378 162.463289,223 168.354384,223 C174.245479,223 179.020956,218.259378 179.020956,212.411713 L179.020956,148.405068 C182.837752,148.405068 186.178051,148.405068 188.725788,148.405068 C191.405982,148.405068 193.4405,145.580396 192.917663,142.545686 Z" id="Shape"></path>
                            <path d="M173.947088,57.4945624 L184,78.700054 L180.283016,53.1223364 C179.438604,47.3117122 174.43598,43 168.538219,43 L150.055186,43 C144.164859,43 139.166171,47.3016991 138.313451,53.1040517 L135.233164,74.064441 C125.133462,79.5350564 115.440878,89.5646632 114.24226,98.5581355 C114.082648,99.7505608 114.006122,100.932973 114,102.101019 L115.262026,101.153696 C120.767973,97.0204773 128.027025,96.83763 133.618681,100.121479 L156.76325,82.6142911 L158.093493,63.3617822 L163.107486,88.2725426 L140.615795,105.030057 C136.96353,107.750998 136.150603,112.964322 138.933969,116.666978 C141.677978,120.318264 146.907556,121.110167 150.623666,118.341772 L177.334791,98.4401555 C179.912192,96.5193887 181.151478,93.2938763 180.519591,90.1510804 L173.947088,57.4945624 Z" id="Shape"></path>
                        </g>
                    </g>
                </g>
            </g>
        </g>
    </g>
</svg>