<?xml version="1.0" encoding="UTF-8"?>
<svg width="186px" height="189px" viewBox="0 0 186 189" version="1.1" xmlns="http://www.w3.org/2000/svg" xmlns:xlink="http://www.w3.org/1999/xlink">
    <!-- Generator: Sketch 50.2 (55047) - http://www.bohemiancoding.com/sketch -->
    <title>Group 6</title>
    <desc>Created with Sketch.</desc>
    <defs>
        <rect id="path-1" x="0" y="0" width="110" height="110" rx="55"></rect>
        <filter x="-63.6%" y="-45.5%" width="227.3%" height="227.3%" filterUnits="objectBoundingBox" id="filter-2">
            <feOffset dx="0" dy="20" in="SourceAlpha" result="shadowOffsetOuter1"></feOffset>
            <feGaussianBlur stdDeviation="20" in="shadowOffsetOuter1" result="shadowBlurOuter1"></feGaussianBlur>
            <feColorMatrix values="0 0 0 0 0   0 0 0 0 0   0 0 0 0 0  0 0 0 0.1 0" type="matrix" in="shadowBlurOuter1"></feColorMatrix>
        </filter>
    </defs>
    <g id="Page-1" stroke="none" stroke-width="1" fill="none" fill-rule="evenodd">
        <g id="Desktop-HD" transform="translate(-1027.000000, -2269.000000)">
            <g id="Group-6" transform="translate(1051.000000, 2269.000000)">
                <g id="Icon" transform="translate(14.000000, 20.000000)">
                    <g id="Rectangle-6">
                        <use fill="black" fill-opacity="1" filter="url(#filter-2)" xlink:href="#path-1"></use>
                        <use fill="#FFFFFF" fill-rule="evenodd" xlink:href="#path-1"></use>
                    </g>
                </g>
                <g id="Group-3" fill="#F68B1F">
                    <path d="M107,115.367029 C101.994448,120.009972 96.0209618,123.681607 89.3821535,126.18576 L89.3821535,98.0835162 L89.2185641,65.5487576 C89.2239357,65.4559756 89.2263773,65.3656351 89.2263773,65.2782247 C89.225889,64.2581105 88.3986638,63.4313735 87.3785496,63.4313735 C86.357947,63.4313735 85.5312101,64.2585988 85.5312101,65.278713 C85.5338975,119.55715 85.6050537,110.602885 85.6599406,127.445814 C80.1169858,129.114303 74.1774256,130 68,130 C66.6463182,130 65.3040586,129.957469 63.9748916,129.87349 C63.5579524,129.422231 62.9611056,129.139622 62.2980962,129.139622 C61.7788275,129.139622 61.3001431,129.312975 60.9166878,129.604933 C52.8992969,128.701317 45.4223778,126.271748 38.8706662,122.565636 L38.8691634,65.6337264 L12.278316,77.0229673 C11.1590715,77.502504 9.98025109,77.7349475 8.81168557,77.7349475 C6.47406622,77.7349475 4.17697797,76.804197 2.48248473,75.0550112 C-0.0587668113,72.4317208 -0.718007699,68.5124116 0.825592631,65.2020457 L21.6121903,20.6271069 C22.23969,19.2827438 23.1655572,18.1742425 24.2711285,17.336274 L20.8294028,10.5680676 C19.5260591,8.00484136 20.54715,4.8697847 23.1103763,3.56644105 C25.6731142,2.26407405 28.8086592,3.28321163 30.1129795,5.84741452 L44.6333704,34.3974282 C45.9367141,36.9611428 44.9156232,40.0957111 42.3519086,41.3995431 C39.7881941,42.7028867 36.6536257,41.6813075 35.3497937,39.1180813 L33.8271915,36.1246393 L26.5418472,51.7476717 L41.2932166,45.4292141 C43.2958439,44.5712242 44.685133,44.7172339 47.3909506,44.7172339 L58.5008687,74.0373386 L56.2101287,61.6729095 C56.0406794,60.8207796 56.1774108,59.9359319 56.5963951,59.1741424 L60.2070818,52.6071265 L57.0085427,46.7901802 C56.7868424,46.3868225 56.7941673,45.8960543 57.0285641,45.5000214 C57.2629608,45.1039885 57.6887816,44.8608019 58.1492736,44.8608019 L66.9274322,44.8608019 C67.3874359,44.8608019 67.813745,45.1035002 68.0481418,45.5000214 C68.2820502,45.8960543 68.2898634,46.3868225 68.0681631,46.7901802 L64.869624,52.6071265 L68.467126,59.1502144 C68.8939234,59.9266537 69.0277249,60.8300578 68.8436258,61.6968375 L66.2237536,74.0373386 L77.4464752,44.7172339 L85.9897488,44.7172339 C97.4268457,44.7172339 106.7783,54.0222969 106.836411,65.4593938 L107,98.0385902 L107,115.367029 Z" id="Combined-Shape"></path>
                    <path d="M62.2575543,36.5151086 C52.1741855,36.5151086 44,28.3409231 44,18.2575543 C44,8.17418549 52.1741855,0 62.2575543,0 C72.3409231,0 80.5151086,8.17418549 80.5151086,18.2575543 C80.5151086,28.3409231 72.3409231,36.5151086 62.2575543,36.5151086 Z" id="Path"></path>
                </g>
            </g>
        </g>
    </g>
</svg>