<?xml version="1.0" encoding="UTF-8"?>
<svg width="199px" height="204px" viewBox="0 0 199 204" version="1.1" xmlns="http://www.w3.org/2000/svg" xmlns:xlink="http://www.w3.org/1999/xlink">
    <!-- Generator: Sketch 50.2 (55047) - http://www.bohemiancoding.com/sketch -->
    <title>Group 5</title>
    <desc>Created with Sketch.</desc>
    <defs>
        <rect id="path-1" x="0" y="0" width="110" height="110" rx="55"></rect>
        <filter x="-63.6%" y="-45.5%" width="227.3%" height="227.3%" filterUnits="objectBoundingBox" id="filter-2">
            <feOffset dx="0" dy="20" in="SourceAlpha" result="shadowOffsetOuter1"></feOffset>
            <feGaussianBlur stdDeviation="20" in="shadowOffsetOuter1" result="shadowBlurOuter1"></feGaussianBlur>
            <feColorMatrix values="0 0 0 0 0   0 0 0 0 0   0 0 0 0 0  0 0 0 0.1 0" type="matrix" in="shadowBlurOuter1"></feColorMatrix>
        </filter>
    </defs>
    <g id="Page-1" stroke="none" stroke-width="1" fill="none" fill-rule="evenodd">
        <g id="Desktop-HD" transform="translate(-614.000000, -2254.000000)">
            <g id="Group-5" transform="translate(614.000000, 2254.000000)">
                <g id="Icon" transform="translate(51.000000, 35.000000)">
                    <g id="Bg">
                        <use fill="black" fill-opacity="1" filter="url(#filter-2)" xlink:href="#path-1"></use>
                        <use fill="#FFFFFF" fill-rule="evenodd" xlink:href="#path-1"></use>
                    </g>
                </g>
                <path d="M49.2562334,7.12381261 C54.0236193,8.30997234 56.9233883,13.1212902 55.7327939,17.8704651 L53.6484569,26.1899128 C48.550072,22.3306979 41.3928466,21.7700503 35.6201709,25.3258079 C28.1342231,29.9379961 25.8185966,39.7225664 30.4480284,47.181538 L41.698349,65.3050607 C39.644972,66.788781 36.9733054,67.3947884 34.31894,66.7343492 L6.7440445,59.8759419 C1.97665854,58.6897821 -0.92311046,53.8789179 0.267028677,49.1292894 L10.8940515,6.71874927 C12.0841906,1.96957437 16.9139519,-0.919393626 21.6813379,0.265858906 L49.2562334,7.12381261 Z M109.5,33 C118.612931,33 126,40.3870695 126,49.5 C126,58.6101852 118.603322,66 109.5,66 C100.39439,66 93,58.6165909 93,49.5 C93,40.3870695 100.387527,33 109.5,33 Z M129.256492,139.855568 C122.19272,143.156303 114.311669,145 106,145 C99.5640307,145 93.3862543,143.894545 87.6461878,141.863153 C87.645408,112.491307 87.6447125,86.0308596 87.6447125,85.0820218 L59.9635385,75.9496387 C58.211537,75.3713252 56.718057,74.1912043 55.7470248,72.6166555 L37.1722053,42.4865233 C34.8964049,38.7939014 36.0349807,33.9487188 39.7159855,31.6652842 C43.3951887,29.3823014 48.2255786,30.5231151 50.5031806,34.2166406 L67.5750619,61.9083682 L94.5914662,70.8216247 L119.373505,70.8216247 C121.4669,68.094967 160.85901,16.7935917 162.954656,14.0642232 C165.59572,10.625517 170.515737,9.98395051 173.945426,12.6338009 C177.374215,15.2831996 178.012412,20.2191954 175.370898,23.659257 C126.044172,87.8990409 129.595466,83.2951235 129.154538,83.8083767 C129.154538,134.987431 129.209135,129.85336 129.256492,139.855568 Z" id="Combined-Shape" fill="#F68B1F"></path>
            </g>
        </g>
    </g>
</svg>